<svg xmlns="http://www.w3.org/2000/svg" xmlns:xlink="http://www.w3.org/1999/xlink" version="1.1" id="Capa_1" x="0px" y="0px" viewBox="0 0 512.004 512.004" style="enable-background:new 0 0 512.004 512.004;" xml:space="preserve" width="56" height="56" class=""><g><path style="fill:#7FDB66" d="M475.211,79.811L386.43,4.996c-9.015-7.581-22.47-6.397-30.051,2.619s-6.397,22.47,2.619,30.051  l44.016,37.408H192.159C125.324,75.148,71.158,129.314,71.083,196.15v38.281c0,11.771,9.551,21.322,21.322,21.322  s21.322-9.551,21.322-21.322v-38.655c0.075-43.293,35.138-78.357,78.432-78.432h210.98l-44.016,37.408  c-9.015,7.581-10.2,21.036-2.619,30.051c7.581,9.015,21.036,10.2,30.051,2.619l88.781-74.816c9.015-7.569,10.2-21.023,2.631-30.038  c-0.798-0.948-1.683-1.833-2.631-2.631L475.211,79.811z" data-original="#4899D2" class="active-path" data-old_color="#20A102"></path><path style="fill:#FDE04A" d="M418.975,255.877c-11.771,0-21.322,9.551-21.322,21.322v38.655  c-0.075,43.293-35.138,78.357-78.432,78.432h-210.98l44.016-37.408c10.312-5.698,14.053-18.666,8.354-28.979  c-5.698-10.312-18.666-14.053-28.979-8.354c-2.369,1.309-4.476,3.055-6.185,5.162l-88.781,74.816  c-9.015,7.569-10.2,21.023-2.631,30.038c0.798,0.948,1.683,1.833,2.631,2.631l88.781,74.815c9.015,7.581,22.47,6.397,30.051-2.619  s6.397-22.47-2.619-30.051l-44.016-37.408h210.356c66.835-0.075,121.002-54.241,121.076-121.076V277.2  C440.298,265.416,430.746,255.877,418.975,255.877z" data-original="#293C7D" class="" data-old_color="#F9DD44"></path><head></head></g> </svg>